<svg width="95" height="95" viewBox="0 0 95 95" fill="none" xmlns="http://www.w3.org/2000/svg">
<g filter="url(#filter0_d_2_262)">
<rect x="20" y="20" width="55" height="55" rx="27.5" fill="#121030"/>
<path d="M55.4721 58.2023H38.9113C37.7921 58.2023 36.8816 57.3133 36.8816 56.2203V43.109C36.8816 42.016 37.7921 41.127 38.9113 41.127H55.4721C56.5912 41.127 57.5017 42.016 57.5017 43.109V56.2203C57.5017 57.3133 56.5912 58.2023 55.4721 58.2023ZM38.9113 42.592C38.6 42.592 38.3469 42.8238 38.3469 43.109V56.2203C38.3469 56.5054 38.6003 56.7373 38.9113 56.7373H55.4721C55.7833 56.7373 56.0364 56.5054 56.0364 56.2203V43.109C56.0364 42.8238 55.783 42.592 55.4721 42.592H38.9113Z" fill="white"/>
<path d="M50.9477 54.2305H43.4352C43.0304 54.2305 42.7026 53.9023 42.7026 53.4978C42.7026 53.0934 43.0304 52.7652 43.4352 52.7652H50.9473C51.3521 52.7652 51.68 53.0934 51.68 53.4978C51.68 53.9023 51.3521 54.2305 50.9477 54.2305ZM51.6518 45.3597C52.6198 45.3597 53.4047 46.1446 53.4047 47.1127C53.4047 48.0808 52.6198 48.8653 51.6518 48.8653C50.6837 48.8653 49.8988 48.0808 49.8988 47.1127C49.8988 46.1446 50.6837 45.3597 51.6518 45.3597ZM42.7315 45.3597C43.6996 45.3597 44.4841 46.1446 44.4841 47.1127C44.4841 48.0808 43.6996 48.8653 42.7315 48.8653C41.7634 48.8653 40.9785 48.0808 40.9785 47.1127C40.9785 46.1446 41.7634 45.3597 42.7315 45.3597ZM47.1915 36.3223C47.9693 36.3223 48.5996 36.9529 48.5996 37.7304C48.5996 38.5083 47.9693 39.1386 47.1915 39.1386C46.4136 39.1386 45.7833 38.5083 45.7833 37.7304C45.7833 36.9529 46.4136 36.3223 47.1915 36.3223Z" fill="white"/>
<path d="M47.1916 42.2399C46.7868 42.2399 46.4589 41.9117 46.4589 41.5072V39.0657C46.4589 38.6612 46.7868 38.333 47.1916 38.333C47.5964 38.333 47.9242 38.6612 47.9242 39.0657V41.5072C47.9242 41.9117 47.5964 42.2399 47.1916 42.2399ZM34.9263 53.8756C34.5215 53.8756 34.1936 53.5474 34.1936 53.1429V46.6325C34.1936 46.228 34.5215 45.8998 34.9263 45.8998C35.3311 45.8998 35.659 46.228 35.659 46.6325V53.1429C35.6586 53.5474 35.3307 53.8756 34.9263 53.8756ZM59.4569 53.8756C59.0521 53.8756 58.7242 53.5474 58.7242 53.1429V46.6325C58.7242 46.228 59.0521 45.8998 59.4569 45.8998C59.8617 45.8998 60.1895 46.228 60.1895 46.6325V53.1429C60.1895 53.5474 59.8617 53.8756 59.4569 53.8756Z" fill="white"/>
</g>
<defs>
<filter id="filter0_d_2_262" x="0" y="0" width="95" height="95" filterUnits="userSpaceOnUse" color-interpolation-filters="sRGB">
<feFlood flood-opacity="0" result="BackgroundImageFix"/>
<feColorMatrix in="SourceAlpha" type="matrix" values="0 0 0 0 0 0 0 0 0 0 0 0 0 0 0 0 0 0 127 0" result="hardAlpha"/>
<feOffset/>
<feGaussianBlur stdDeviation="10"/>
<feColorMatrix type="matrix" values="0 0 0 0 0.853424 0 0 0 0 0.867379 0 0 0 0 0.951115 0 0 0 0.5 0"/>
<feBlend mode="normal" in2="BackgroundImageFix" result="effect1_dropShadow_2_262"/>
<feBlend mode="normal" in="SourceGraphic" in2="effect1_dropShadow_2_262" result="shape"/>
</filter>
</defs>
</svg>
