<svg width="24" height="24" viewBox="0 0 24 24" fill="none" xmlns="http://www.w3.org/2000/svg">
<path d="M19.827 19.3351C18.6332 21.3145 16.4701 23 14.2576 23C13.8351 23 13.3873 22.9265 12.9648 22.8043C12.89 22.8043 12.8405 22.7309 12.8152 22.6574C12.79 22.5839 12.79 22.5104 12.8152 22.4617L12.9648 22.1201C13.2882 21.3623 13.6855 20.5319 13.8351 19.7503C13.9594 19.1643 13.9342 18.626 13.7856 18.1622C13.5369 17.454 12.9901 16.9892 12.3927 16.5254C11.8954 16.1341 11.3981 15.7189 11.0503 15.1568C10.6774 14.546 10.454 13.813 10.4034 13.1048C10.18 13.3978 9.90613 13.667 9.63221 13.9351C9.48263 14.0821 9.30876 14.2281 9.18443 14.399C8.38894 15.2541 8.18981 16.1827 8.58806 17.1352C8.73764 17.5017 8.96104 17.8433 9.18443 18.2098C9.3583 18.479 9.50789 18.7471 9.65648 19.0401C10.2781 20.2866 10.1538 21.7028 9.2835 22.705C9.20871 22.7785 9.10964 22.8024 9.03484 22.7785C5.30501 21.9234 2.37063 17.6227 3.1166 14.1299C3.34 13.1039 3.88783 12.1018 4.80765 11.0758C5.25543 10.5623 5.75274 10.0985 6.25005 9.63466C6.94649 8.97517 7.66719 8.29086 8.21403 7.53306C8.81041 6.67792 9.20865 5.65195 9.30772 4.60115C9.40679 3.77084 9.23293 3.01303 9.05906 2.23139C8.98427 1.93839 8.90948 1.62057 8.85995 1.30275C8.85995 1.2054 8.85994 1.13192 8.93474 1.05843C9.00953 1.00975 9.1086 0.984939 9.18339 1.00975C10.2275 1.35142 11.1231 2.15789 11.9681 2.98918C13.7582 4.74813 15.0014 7.0941 15.5482 9.75677C16.1203 8.77946 16.4438 7.77734 16.5924 6.53191C16.5924 6.40975 16.7167 6.3124 16.841 6.3124C16.9654 6.3124 17.0644 6.38589 17.115 6.48323C17.4879 7.72969 18.2086 8.82915 18.9303 9.85518L19.1295 10.1482C19.9007 11.2963 20.8205 12.8358 20.9691 14.546C21.1187 16.2076 20.7205 17.8931 19.8754 19.3104L19.827 19.3351Z" fill="#DF6D48"/>
</svg>
