<svg width="24" height="24" viewBox="0 0 24 24" fill="none" xmlns="http://www.w3.org/2000/svg">
<g clip-path="url(#clip0_2_239)">
<path d="M12.0919 1.85166C12.1397 1.59497 12.2378 1.35026 12.3805 1.1316C12.5232 0.912943 12.7077 0.724658 12.9234 0.577573C13.1391 0.430489 13.3818 0.327509 13.6375 0.274558C13.8932 0.221606 14.1568 0.219728 14.4132 0.269031C14.6696 0.318333 14.9137 0.417844 15.1315 0.56184C15.3493 0.705835 15.5365 0.891472 15.6823 1.10807C15.8281 1.32467 15.9296 1.56796 15.981 1.82395C16.0325 2.07993 16.0328 2.34356 15.9819 2.59966C15.8801 3.11291 15.5792 3.56499 15.1452 3.85718C14.7111 4.14936 14.179 4.25791 13.6652 4.1591C13.1513 4.06029 12.6974 3.76217 12.4027 3.32983C12.1079 2.8975 11.9962 2.36609 12.0919 1.85166ZM3.93728 16.9423L7.84128 16.6103C7.90128 16.605 7.95861 16.5903 8.01461 16.577C8.19947 16.5669 8.37863 16.5094 8.53493 16.4102C8.69123 16.311 8.81944 16.1733 8.90728 16.0103L10.7186 12.6477L13.4633 14.5257L14.9726 18.7083C15.0233 18.8416 15.0997 18.9636 15.1975 19.0674C15.2953 19.1712 15.4125 19.2546 15.5426 19.3131C15.6727 19.3715 15.813 19.4038 15.9555 19.408C16.098 19.4122 16.24 19.3883 16.3733 19.3377C16.5066 19.287 16.6286 19.2106 16.7323 19.1128C16.8361 19.015 16.9196 18.8977 16.978 18.7677C17.0365 18.6376 17.0687 18.4973 17.0729 18.3548C17.0772 18.2122 17.0533 18.0703 17.0026 17.937L15.4199 13.5483C15.354 13.3774 15.2452 13.2263 15.1039 13.1097C15.0281 12.9959 14.9313 12.8977 14.8186 12.8203L11.7519 10.723L13.1346 7.92099L13.7013 8.63499C13.7479 8.69299 13.8013 8.74232 13.8566 8.78633C14.1066 9.07966 14.5179 9.20366 14.8999 9.06433L17.6953 8.04632C17.9272 7.9576 18.1149 7.78109 18.2177 7.555C18.3205 7.32891 18.3302 7.07144 18.2445 6.8383C18.1589 6.60517 17.9849 6.41514 17.7602 6.30934C17.5355 6.20354 17.2782 6.19048 17.0439 6.27299L14.8666 7.06499L13.9453 5.90433C13.9517 5.57432 13.8631 5.24943 13.6902 4.96827C13.5173 4.68712 13.2673 4.46153 12.9699 4.31833C12.7492 4.21224 12.5084 4.15462 12.2636 4.14933C12.0188 4.14404 11.7757 4.19121 11.5506 4.28766L8.97061 3.82633C8.88956 3.81268 8.80704 3.80999 8.72528 3.81833C8.49514 3.79686 8.26516 3.86094 8.07928 3.99833L5.68728 5.76499C5.58619 5.83842 5.50068 5.93118 5.43569 6.03789C5.37069 6.1446 5.32752 6.26314 5.30865 6.38665C5.28979 6.51016 5.29561 6.63618 5.32578 6.75742C5.35596 6.87867 5.40989 6.99272 5.48444 7.09298C5.559 7.19324 5.6527 7.27772 5.76013 7.34151C5.86755 7.40531 5.98657 7.44716 6.11028 7.46465C6.23399 7.48213 6.35994 7.47491 6.48084 7.44338C6.60174 7.41186 6.71519 7.35666 6.81461 7.28099L8.90928 5.73433L10.2513 5.97433L8.62128 9.27966C8.55461 9.41833 8.50994 9.56233 8.48261 9.70633C8.46594 9.72899 8.44661 9.74633 8.43061 9.76899C8.3502 9.88673 8.29379 10.0192 8.26458 10.1587C8.23537 10.2983 8.23394 10.4422 8.26038 10.5823C8.28681 10.7224 8.34059 10.8559 8.41864 10.9752C8.4967 11.0946 8.5975 11.1973 8.71528 11.2777L8.91528 11.415L7.26394 14.4803L3.73461 14.7797C3.59261 14.793 3.45462 14.8341 3.32852 14.9007C3.20241 14.9674 3.09067 15.0582 2.99967 15.168C2.81589 15.3898 2.72774 15.6755 2.75461 15.9623C2.78149 16.2491 2.92119 16.5135 3.14298 16.6973C3.36477 16.8811 3.65049 16.9692 3.93728 16.9423ZM22.9073 8.18899C22.6114 8.10288 22.2934 8.13762 22.0231 8.28559C21.7528 8.43355 21.5522 8.68267 21.4653 8.97832L18.1559 20.3163L1.08394 21.611C1.05928 21.613 1.03728 21.621 1.01328 21.6243C0.972611 21.629 0.932611 21.635 0.893277 21.645C0.857277 21.6543 0.822611 21.665 0.787277 21.6783C0.750611 21.6917 0.714611 21.7043 0.679944 21.721C0.645944 21.737 0.613277 21.7543 0.581944 21.7743C0.549662 21.7928 0.518291 21.8128 0.487944 21.8343C0.457944 21.8563 0.429944 21.881 0.401944 21.9057C0.346438 21.9543 0.296165 22.0086 0.251944 22.0677C0.229277 22.097 0.206611 22.1277 0.186611 22.1597C0.127988 22.256 0.0833213 22.3601 0.053944 22.469C0.0435712 22.5052 0.035115 22.5419 0.0286107 22.579C0.021944 22.6177 0.0192774 22.657 0.0172774 22.697C0.0152774 22.7223 0.00927737 22.7457 0.00927734 22.7703C0.00927734 22.7857 0.0132774 22.8003 0.013944 22.815C0.013944 22.8297 0.0112773 22.843 0.0126107 22.8583C0.0146107 22.8843 0.0226107 22.9083 0.025944 22.933C0.0312774 22.9703 0.035944 23.0063 0.0446107 23.0423C0.053944 23.081 0.0666107 23.117 0.0792773 23.1543C0.0912773 23.1877 0.101944 23.2203 0.116611 23.2517C0.133277 23.2883 0.153277 23.3223 0.173277 23.357C0.190611 23.3863 0.206611 23.4143 0.225277 23.4423C0.249277 23.4743 0.275277 23.505 0.301944 23.5357C0.323944 23.5597 0.343944 23.5843 0.367277 23.607C0.396611 23.635 0.429277 23.6597 0.460611 23.6843C0.486611 23.7043 0.510611 23.725 0.537944 23.7437C0.573277 23.7663 0.611277 23.7837 0.648611 23.8037C0.675944 23.817 0.702611 23.8337 0.731944 23.8457C0.776611 23.8637 0.823944 23.8757 0.871944 23.889C0.895944 23.8957 0.918611 23.905 0.943944 23.9103C1.01728 23.925 1.09328 23.9337 1.17061 23.9337H20.4026C20.7061 23.9264 20.9946 23.8007 21.2067 23.5836C21.4187 23.3664 21.5374 23.0749 21.5374 22.7713C21.5374 22.4678 21.4187 22.1763 21.2067 21.9591C20.9946 21.7419 20.7061 21.6163 20.4026 21.609H20.2013L23.6986 9.63099C23.7851 9.33483 23.7503 9.01647 23.602 8.74592C23.4538 8.47537 23.2041 8.2748 22.9079 8.18833L22.9073 8.18899Z" fill="#A900D8"/>
</g>
<defs>
<clipPath id="clip0_2_239">
<rect width="24" height="24" fill="white"/>
</clipPath>
</defs>
</svg>
