<svg width="24" height="24" viewBox="0 0 24 24" fill="none" xmlns="http://www.w3.org/2000/svg">
<g clip-path="url(#clip0_2_275)">
<path d="M16.8522 8.50346L9.42755 15.9281C9.2574 16.0982 8.97898 16.0982 8.80883 15.9281L7.57139 14.6906C7.40125 14.5205 7.40125 14.2421 7.57139 14.0719L14.996 6.6473C15.1662 6.47715 15.4446 6.47715 15.6147 6.6473L16.8522 7.88474C17.0223 8.05489 17.0223 8.33331 16.8522 8.50346ZM21.0285 10.669L12.8305 2.47095C12.3626 2.00305 12.3626 1.23738 12.8305 0.769476C13.2984 0.301571 14.0641 0.30157 14.532 0.769476L22.73 8.9675C23.1979 9.4354 23.1979 10.2011 22.73 10.669C22.2621 11.1369 21.4964 11.1369 21.0285 10.669ZM17.6256 0.924156L17.1615 1.38819C16.9914 1.55834 16.9914 1.83677 17.1615 2.00691L21.4926 6.33794C21.6627 6.50809 21.9411 6.50809 22.1113 6.33794L22.5753 5.8739C23.0007 5.44853 23.0007 4.75248 22.5753 4.32711L19.1724 0.924156C18.747 0.498787 18.0509 0.498787 17.6256 0.924156ZM11.5931 20.1044L3.39504 11.9064C2.92714 11.4385 2.16147 11.4385 1.69357 11.9064C1.22566 12.3743 1.22566 13.14 1.69357 13.6079L9.89159 21.8059C10.3595 22.2738 11.1252 22.2738 11.5931 21.8059C12.061 21.338 12.061 20.5723 11.5931 20.1044ZM2.31229 16.2374L1.84825 16.7015C1.42288 17.1268 1.42288 17.8229 1.84825 18.2483L5.2512 21.6512C5.67657 22.0766 6.37263 22.0766 6.79799 21.6512L7.26203 21.1872C7.43218 21.017 7.43218 20.7386 7.26203 20.5685L2.931 16.2374C2.76086 16.0673 2.48243 16.0673 2.31229 16.2374Z" fill="#535353"/>
</g>
<defs>
<clipPath id="clip0_2_275">
<rect width="24" height="24" fill="white"/>
</clipPath>
</defs>
</svg>
