<svg width="24" height="24" viewBox="0 0 24 24" fill="none" xmlns="http://www.w3.org/2000/svg">
<path d="M12.1734 22.4695C6.30462 22.4695 1.53027 17.694 1.53027 11.8242C1.53027 7.0294 4.76402 2.80798 9.3948 1.55878C9.7277 1.47004 10.0811 1.59253 10.2864 1.86961C10.3865 2.00504 10.4435 2.16754 10.4498 2.33586C10.4562 2.50419 10.4116 2.67052 10.3219 2.81311C9.53058 4.07295 9.1122 5.51886 9.1122 6.99443C9.1122 11.3406 12.6498 14.8765 16.9984 14.8765C18.4773 14.8765 19.925 14.4567 21.1855 13.6623C21.328 13.5724 21.4944 13.5276 21.6628 13.5338C21.8312 13.54 21.9938 13.5968 22.1294 13.6969C22.2649 13.7969 22.3672 13.9354 22.4228 14.0944C22.4784 14.2534 22.4848 14.4255 22.441 14.5882C21.1941 19.2284 16.9718 22.4695 12.1734 22.4695ZM7.94868 3.92142C5.08138 5.45343 3.20542 8.47246 3.20542 11.8242C3.20542 16.7703 7.22847 20.7944 12.1733 20.7944C15.529 20.7944 18.5496 18.9127 20.0804 16.037C19.0886 16.3778 18.0471 16.5517 16.9984 16.5517C11.7263 16.5517 7.43704 12.2642 7.43704 6.99443C7.43711 5.9489 7.60999 4.91057 7.94868 3.92142Z" fill="#00BBD8"/>
<path d="M21.632 9.33901H14.9539L14.2889 7.48351L18.2928 4.18965H14.9539V2.0957H21.2133L21.8782 3.95121L17.8744 7.24508H21.632V9.33901Z" fill="#00BBD8"/>
</svg>
