<svg width="21" height="21" viewBox="0 0 21 21" fill="none" xmlns="http://www.w3.org/2000/svg">
<path d="M17.4928 8.21845e-05C17.3103 0.00299068 17.1361 0.0770694 17.0074 0.206527L15.6072 1.60652C15.5418 1.67156 15.4899 1.74889 15.4544 1.83406C15.419 1.91923 15.4007 2.01056 15.4007 2.10281V4.61159L15.0179 4.9944C13.3744 3.58784 11.2793 2.80007 9.10124 2.80007C4.08305 2.80007 0 6.88257 0 11.9C0 16.9175 4.08305 21 9.10124 21C14.1194 21 18.2011 16.9175 18.2011 11.9C18.2011 10.2299 17.7425 8.59315 16.8734 7.16685C16.828 7.08355 16.7662 7.01033 16.6917 6.95165C16.6172 6.89296 16.5315 6.85003 16.4398 6.82546C16.3482 6.80089 16.2526 6.79519 16.1587 6.80871C16.0648 6.82224 15.9746 6.8547 15.8936 6.90413C15.8127 6.95355 15.7426 7.01891 15.6876 7.09624C15.6327 7.17357 15.5941 7.26126 15.5741 7.35397C15.5541 7.44669 15.5531 7.54251 15.5712 7.63561C15.5894 7.72871 15.6263 7.81715 15.6797 7.89556C16.4151 9.10251 16.8009 10.4867 16.8009 11.9C16.8009 16.1609 13.3627 19.6 9.10124 19.6C4.83976 19.6 1.40019 16.1609 1.40019 11.9C1.40019 7.63917 4.83976 4.20143 9.10124 4.20143C10.9082 4.20141 12.6473 4.84034 14.0252 5.98697L13.0311 6.98091C11.9201 6.09364 10.5369 5.60143 9.10124 5.60143C5.6297 5.60143 2.8004 8.42898 2.80038 11.9C2.80038 15.3711 5.62968 18.1986 9.10124 18.1986C12.5728 18.1986 15.4007 15.3711 15.4007 11.9C15.4007 11.0073 15.2139 10.1244 14.8469 9.31059C14.8101 9.22498 14.7565 9.14757 14.6894 9.0829C14.6223 9.01824 14.5429 8.96762 14.4559 8.93401C14.369 8.9004 14.2762 8.88447 14.183 8.88715C14.0899 8.88983 13.9982 8.91108 13.9133 8.94965C13.8284 8.98821 13.7521 9.04331 13.6888 9.11173C13.6255 9.18015 13.5765 9.26051 13.5446 9.3481C13.5128 9.4357 13.4987 9.52878 13.5033 9.62187C13.5078 9.71497 13.5309 9.80622 13.5712 9.89028C13.8566 10.5233 13.9992 11.2057 13.9992 11.9C13.9992 14.6145 11.8161 16.8041 9.10124 16.8041C6.38639 16.8041 4.20057 14.6145 4.20057 11.9C4.2006 9.18559 6.38641 7.00142 9.10124 7.00142C10.1638 7.00142 11.1881 7.35219 12.0302 7.98032L11.0292 8.9811C10.461 8.60646 9.79218 8.40142 9.10124 8.40142C7.17628 8.40142 5.60213 9.97534 5.60213 11.9C5.60213 13.8247 7.17628 15.4041 9.10124 15.4041C11.0262 15.4041 12.599 13.8247 12.599 11.9C12.6077 11.8032 12.5961 11.7056 12.565 11.6135C12.5339 11.5214 12.484 11.4368 12.4184 11.3651C12.3528 11.2933 12.273 11.236 12.184 11.1968C12.095 11.1576 11.9988 11.1373 11.9016 11.1373C11.8044 11.1373 11.7082 11.1576 11.6193 11.1968C11.5303 11.236 11.4505 11.2933 11.3849 11.3651C11.3193 11.4368 11.2693 11.5214 11.2382 11.6135C11.2071 11.7056 11.1956 11.8032 11.2043 11.9C11.2043 13.0681 10.2695 14.0028 9.10124 14.0028C7.93299 14.0028 7.00232 13.0681 7.00232 11.9C7.00232 10.732 7.93299 9.80281 9.10124 9.80278C9.41521 9.80278 9.7191 9.87892 9.99824 10.0106L8.60488 11.4037C8.53737 11.4683 8.48343 11.5457 8.44623 11.6314C8.40902 11.717 8.3893 11.8093 8.38822 11.9027C8.38714 11.9961 8.40472 12.0888 8.43994 12.1753C8.47517 12.2618 8.52731 12.3404 8.59332 12.4065C8.65934 12.4726 8.73789 12.5248 8.82437 12.5602C8.91084 12.5955 9.00351 12.6132 9.09692 12.6123C9.19034 12.6113 9.28261 12.5917 9.36835 12.5546C9.45409 12.5176 9.53157 12.4637 9.59623 12.3963L11.4545 10.5383C11.5553 10.4785 11.6394 10.3944 11.6993 10.2936L13.4344 8.55864C13.5352 8.49883 13.6194 8.41469 13.6792 8.31392L15.4896 6.50377C15.5229 6.47612 15.5536 6.44546 15.5812 6.41217L16.3921 5.60143H18.9039C19.0884 5.59995 19.2648 5.52576 19.3948 5.39498L20.7964 3.99362C20.9268 3.86245 21 3.68502 21 3.50007C21 3.31512 20.9268 3.13768 20.7964 3.00652L19.4741 1.68308C19.4311 1.62333 19.379 1.57073 19.3196 1.52722L18.0001 0.206527C17.9338 0.139795 17.8546 0.087121 17.7675 0.0516506C17.6803 0.0161802 17.5869 -0.00135952 17.4928 8.21845e-05ZM17.5037 1.68992L17.9139 2.10007L16.8009 3.21296V2.39265L17.5037 1.68992ZM18.9039 3.08991L19.3128 3.4987L18.6154 4.20143H17.7922L18.9039 3.08991Z" fill="black"/>
</svg>
