<svg width="24" height="24" viewBox="0 0 24 24" fill="none" xmlns="http://www.w3.org/2000/svg">
<path d="M12 23.4999C9.42021 23.4973 6.94678 22.4713 5.12246 20.6472C3.29815 18.8231 2.27196 16.3498 2.26904 13.7699C2.23904 7.77693 7.73304 2.94193 10.1 1.14193C10.649 0.724254 11.3202 0.499001 12.0099 0.50099C12.6997 0.502978 13.3695 0.732097 13.916 1.15293C16.276 2.97893 21.765 7.86293 21.735 13.7859C21.7292 16.3641 20.701 18.8347 18.876 20.6558C17.051 22.4768 14.5782 23.4997 12 23.4999Z" fill="white"/>
<path d="M12.994 2.34036C12.7084 2.12213 12.359 2.00391 11.9995 2.00391C11.6401 2.00391 11.2906 2.12213 11.005 2.34036C8.82102 4.00036 3.74302 8.44436 3.76902 13.7704C3.76783 15.9534 4.63387 18.0474 6.17664 19.5919C7.71941 21.1363 9.81252 22.0047 11.9955 22.0059C14.1785 22.0071 16.2726 21.141 17.817 19.5982C19.3615 18.0555 20.2298 15.9624 20.231 13.7794C20.257 8.52536 15.179 4.02936 12.994 2.34036ZM11.732 18.7334C11.6854 18.8721 11.5965 18.9927 11.4777 19.0783C11.359 19.1639 11.2164 19.21 11.07 19.2104C10.9949 19.2106 10.9202 19.1985 10.849 19.1744C7.61802 18.1004 7.58102 15.8184 7.58102 15.7214C7.57956 15.5357 7.65191 15.3571 7.78216 15.2248C7.9124 15.0925 8.08987 15.0173 8.27552 15.0159C8.46117 15.0144 8.6398 15.0868 8.77211 15.217C8.90441 15.3472 8.97956 15.5247 8.98102 15.7104C8.98102 15.7914 9.08102 17.1104 11.295 17.8514C11.4693 17.9113 11.6129 18.0375 11.6947 18.2026C11.7765 18.3677 11.7899 18.5584 11.732 18.7334Z" fill="url(#paint0_linear_2_246)"/>
<defs>
<linearGradient id="paint0_linear_2_246" x1="18.093" y1="19.3144" x2="5.89202" y2="7.11336" gradientUnits="userSpaceOnUse">
<stop stop-color="#629AD3"/>
<stop offset="1" stop-color="#79AED4"/>
</linearGradient>
</defs>
</svg>
