<svg width="24" height="24" viewBox="0 0 24 24" fill="none" xmlns="http://www.w3.org/2000/svg">
<path d="M16.6567 3.32232C16.0637 2.42158 15.219 1.95439 14.2674 2.00351C13.408 2.04833 12.5512 2.52672 11.9961 3.23957C11.4419 2.52672 10.5842 2.04835 9.72485 2.00351C8.78016 1.95438 7.92768 2.42242 7.33553 3.32232C6.83647 4.07998 6.7089 4.93676 6.95626 5.86764C7.5648 8.16384 10.2748 10.2817 11.8402 11.0781C11.8893 11.1031 11.9427 11.1152 11.9962 11.1152C12.0496 11.1152 12.1031 11.1031 12.1522 11.0781C13.7175 10.2825 16.4275 8.16384 17.0361 5.86764C17.2826 4.93672 17.1549 4.0808 16.6567 3.32232Z" fill="#535353"/>
<path d="M13.1685 19.2422H19.7652C19.9557 19.2422 20.11 19.4327 20.11 19.587V21.6557C20.11 21.8462 19.9557 22.0005 19.7652 22.0005H13.1685C12.978 22.0005 12.8237 21.81 12.8237 21.6557V19.587C12.8237 19.3965 12.978 19.2422 13.1685 19.2422Z" fill="#535353"/>
<path d="M21.6509 8.31348C20.1115 8.31348 18.8591 9.56591 18.8591 11.1053V11.6199C19.1324 11.7561 19.3772 11.9483 19.5754 12.1879C20.2848 13.0455 20.2072 14.3514 19.3987 15.16L17.6576 16.9011C17.5903 16.9684 17.5024 17.002 17.4136 17.002C17.3257 17.002 17.2369 16.9684 17.1697 16.9011C17.0352 16.7667 17.0352 16.5486 17.1697 16.4133L18.9108 14.6721C19.4711 14.1118 19.5289 13.2137 19.0436 12.6267C18.9875 12.5586 18.9238 12.5 18.8574 12.444L18.8557 12.4371C18.6048 12.2242 18.2885 12.0957 17.9558 12.0802C17.5369 12.0544 17.1231 12.219 16.8266 12.5164L14.1191 15.2239C13.8786 15.4635 13.7416 15.7945 13.7416 16.1341V18.551H19.1908V17.9907C19.1908 17.9011 19.2261 17.8166 19.2891 17.7528L21.5182 15.5237C21.8233 15.2186 21.9966 14.7997 21.994 14.3747V8.65829C21.994 8.46779 21.8397 8.3135 21.6492 8.3135L21.6509 8.31348Z" fill="#535353"/>
<path d="M4.22906 19.2422H10.8257C11.0162 19.2422 11.1705 19.4327 11.1705 19.587V21.6557C11.1705 21.8462 11.0162 22.0005 10.8257 22.0005H4.22906C4.03857 22.0005 3.88428 21.81 3.88428 21.6557V19.587C3.88428 19.3965 4.03857 19.2422 4.22906 19.2422Z" fill="#535353"/>
<path d="M2.34307 8.31348C3.88254 8.31348 5.13488 9.56591 5.13488 11.1053V11.6199C4.86163 11.7561 4.61683 11.9483 4.41859 12.1879C3.70921 13.0455 3.78677 14.3514 4.59529 15.16L6.33644 16.9011C6.40367 16.9684 6.49159 17.002 6.58038 17.002C6.6683 17.002 6.75708 16.9684 6.82432 16.9011C6.95879 16.7667 6.95879 16.5486 6.82432 16.4133L5.08317 14.6721C4.52289 14.1118 4.46515 13.2137 4.95043 12.6267C5.00646 12.5586 5.07025 12.5 5.13662 12.444L5.13834 12.4371C5.38917 12.2242 5.70551 12.0957 6.03822 12.0802C6.45712 12.0544 6.87086 12.219 7.16739 12.5164L9.8749 15.2239C10.1154 15.4635 10.2524 15.7945 10.2524 16.1341V18.551H4.8032V17.9907C4.8032 17.9011 4.76786 17.8166 4.70494 17.7528L2.47582 15.5237C2.17069 15.2186 1.99743 14.7997 2.00003 14.3747V8.65829C2.00003 8.46779 2.15432 8.3135 2.34481 8.3135L2.34307 8.31348Z" fill="#535353"/>
</svg>
