<svg width="24" height="24" viewBox="0 0 24 24" fill="none" xmlns="http://www.w3.org/2000/svg">
<path d="M12 7.875C13.864 7.875 15.375 6.36396 15.375 4.5C15.375 2.63604 13.864 1.125 12 1.125C10.136 1.125 8.625 2.63604 8.625 4.5C8.625 6.36396 10.136 7.875 12 7.875Z" fill="#535353"/>
<path d="M21.75 13.125H20.04L17.0737 9.85875C16.8273 9.58858 16.5274 9.3727 16.1929 9.22485C15.8585 9.077 15.4969 9.00042 15.1312 9H8.86875C8.50309 9.00042 8.14152 9.077 7.80708 9.22485C7.47264 9.3727 7.17266 9.58858 6.92625 9.85875L3.96 13.125H2.25C1.95163 13.125 1.66548 13.2435 1.4545 13.4545C1.24353 13.6655 1.125 13.9516 1.125 14.25C1.125 14.5484 1.24353 14.8345 1.4545 15.0455C1.66548 15.2565 1.95163 15.375 2.25 15.375H5.25C5.33759 15.375 5.42245 15.3445 5.49 15.2888L7.815 13.35L8.10375 16.9387L3.69375 16.5862C3.27842 16.5523 2.86506 16.6718 2.53186 16.922C2.19866 17.1723 1.96874 17.536 1.8856 17.9443C1.80245 18.3526 1.87185 18.7773 2.08066 19.1379C2.28948 19.4985 2.62322 19.7701 3.01875 19.9012L7.9125 21.5325L11.1637 22.6163C11.4479 22.7105 11.7565 22.6995 12.0332 22.5852C12.3099 22.4709 12.5364 22.261 12.6713 21.9938C12.7129 21.9116 12.7444 21.8247 12.765 21.735C12.8369 21.4485 12.8043 21.1457 12.6731 20.8811C12.5418 20.6164 12.3204 20.4073 12.0487 20.2913L8.46375 18.7537L8.75625 18.0637L12.2812 19.575L12.2775 19.56L16.0125 18.3937L16.2375 19.1063L13.0387 20.1075C13.2104 20.2936 13.3442 20.5115 13.4325 20.7488C13.5249 21.0044 13.5645 21.2761 13.5487 21.5475L20.8688 19.8075C21.2698 19.7112 21.6198 19.4673 21.849 19.1244C22.0782 18.7816 22.1698 18.3649 22.1054 17.9575C22.0411 17.5501 21.8255 17.182 21.5018 16.9264C21.1781 16.6709 20.7699 16.5467 20.3587 16.5787L15.8962 16.9387L16.185 13.35L18.51 15.2888C18.5775 15.3445 18.6624 15.375 18.75 15.375H21.75C22.0484 15.375 22.3345 15.2565 22.5455 15.0455C22.7565 14.8345 22.875 14.5484 22.875 14.25C22.875 13.9516 22.7565 13.6655 22.5455 13.4545C22.3345 13.2435 22.0484 13.125 21.75 13.125Z" fill="#535353"/>
</svg>
